# xmcd
#
# Track frame offsets: 
#        150
#        21012
#        38098
#        59899
#        78421
#        98059
#        125531
#        145295
#        159638
#        201767
#        219062
#        253038
#        280699
#
# Disc length: 3921 seconds
#
# Revision: 0
# Processed by: cddbd v1.5.2PL0 Copyright (c) Steve Scherf et al.
# Submitted via: ExactAudioCopy v0.99pb5
#
DISCID=b50f4f0d
DTITLE=Shun Kikuta - Me And My Guitar
DYEAR=1999
DGENRE=Blues
TTITLE0=Mr. Air (For MJ)
TTITLE1=Woman Across The River
TTITLE2=Me And My Guitar
TTITLE3=Same Old Blues
TTITLE4=Cut You Loose
TTITLE5=Come On In This House
TTITLE6=Watch Me Move
TTITLE7=Little By Little
TTITLE8=Take A Look Behind
TTITLE9=Let Me Love You Baby
TTITLE10=I'll Take Care Of You
TTITLE11=I'll Play The Blues For You
TTITLE12=Memory Of Louis
EXTD=
EXTT0=
EXTT1=
EXTT2=
EXTT3=
EXTT4=
EXTT5=
EXTT6=
EXTT7=
EXTT8=
EXTT9=
EXTT10=
EXTT11=
EXTT12=
PLAYORDER=
